<?xml version="1.0" standalone="no"?>
<!DOCTYPE svg PUBLIC "-//W3C//DTD SVG 20010904//EN"
 "http://www.w3.org/TR/2001/REC-SVG-20010904/DTD/svg10.dtd">
<svg version="1.0" xmlns="http://www.w3.org/2000/svg"
 width="53.000000pt" height="48.000000pt" viewBox="0 0 53.000000 48.000000"
 preserveAspectRatio="xMidYMid meet">
<metadata>
Created by potrace 1.10, written by Peter Selinger 2001-2011
</metadata>
<g transform="translate(0.000000,48.000000) scale(0.100000,-0.100000)"
fill="#ffffff" stroke="none">
<path d="M36 453 c-8 -8 -8 -128 0 -136 3 -3 12 -3 20 0 20 7 20 129 0 136 -8
3 -17 3 -20 0z"/>
<path d="M137 453 c-9 -8 -9 -128 0 -136 16 -16 33 19 33 68 0 49 -17 84 -33
68z"/>
<path d="M230 452 c-6 -2 -10 -10 -10 -18 0 -11 24 -14 129 -14 118 0 157 8
138 27 -6 5 -241 10 -257 5z"/>
<path d="M220 335 c0 -8 6 -15 13 -15 82 -3 250 0 254 4 3 2 2 9 -2 15 -4 7
-55 11 -136 11 -108 0 -129 -2 -129 -15z"/>
<path d="M37 254 c-4 -4 -7 -13 -7 -21 0 -11 42 -13 228 -11 194 3 227 5 227
18 0 13 -32 15 -221 18 -121 1 -223 -1 -227 -4z"/>
<path d="M35 149 c-15 -23 16 -30 136 -27 102 3 124 6 124 18 0 12 -22 15
-127 18 -85 2 -129 -1 -133 -9z"/>
<path d="M354 147 c-3 -8 -4 -39 -2 -68 2 -42 7 -55 21 -57 16 -3 18 3 15 64
-2 43 -8 69 -15 72 -7 2 -15 -3 -19 -11z"/>
<path d="M450 90 c0 -63 2 -71 18 -68 25 5 25 131 0 136 -16 3 -18 -5 -18 -68z"/>
<path d="M33 47 c-13 -21 22 -27 138 -25 96 2 124 6 124 16 0 11 -28 14 -128
15 -71 1 -131 -2 -134 -6z"/>
</g>
</svg>
